<svg width="212" height="88" viewBox="0 0 212 88" fill="none" xmlns="http://www.w3.org/2000/svg">
<mask id="path-1-outside-1_50_765" maskUnits="userSpaceOnUse" x="61.7781" y="0.0611572" width="88" height="23" fill="black">
<rect fill="white" x="61.7781" y="0.0611572" width="88" height="23"/>
<path d="M62.7781 1.06116H68.9575V21.1671H62.7781V1.06116Z"/>
<path d="M142.476 1.06116H148.656V21.1671H142.476V1.06116Z"/>
<path d="M148.656 1.06116V6.53209L62.7781 6.53209L62.7781 1.06116H148.656Z"/>
</mask>
<path d="M62.7781 1.06116H68.9575V21.1671H62.7781V1.06116Z" fill="white" style="fill:white;fill-opacity:1;"/>
<path d="M142.476 1.06116H148.656V21.1671H142.476V1.06116Z" fill="white" style="fill:white;fill-opacity:1;"/>
<path d="M148.656 1.06116V6.53209L62.7781 6.53209L62.7781 1.06116H148.656Z" fill="white" style="fill:white;fill-opacity:1;"/>
<path d="M62.7781 1.06116V0.0611572H61.7781L61.7781 1.06116L62.7781 1.06116ZM68.9575 1.06116H69.9575V0.0611572H68.9575V1.06116ZM68.9575 21.1671V22.1671H69.9575V21.1671H68.9575ZM62.7781 21.1671H61.7781V22.1671H62.7781V21.1671ZM142.476 1.06116V0.0611572H141.476V1.06116H142.476ZM148.656 1.06116H149.656V0.0611572H148.656V1.06116ZM148.656 21.1671V22.1671H149.656V21.1671H148.656ZM142.476 21.1671H141.476V22.1671H142.476V21.1671ZM148.656 6.53209V7.53209H149.656V6.53209H148.656ZM62.7781 6.53209L61.7781 6.53209L61.7781 7.53209H62.7781L62.7781 6.53209ZM62.7781 2.06116H68.9575V0.0611572H62.7781V2.06116ZM67.9575 1.06116V21.1671H69.9575V1.06116H67.9575ZM68.9575 20.1671H62.7781V22.1671H68.9575V20.1671ZM63.7781 21.1671V1.06116H61.7781V21.1671H63.7781ZM142.476 2.06116H148.656V0.0611572H142.476V2.06116ZM147.656 1.06116V21.1671H149.656V1.06116H147.656ZM148.656 20.1671H142.476V22.1671H148.656V20.1671ZM143.476 21.1671V1.06116H141.476V21.1671H143.476ZM147.656 1.06116V6.53209H149.656V1.06116H147.656ZM148.656 5.53209L62.7781 5.53209L62.7781 7.53209L148.656 7.53209V5.53209ZM63.7781 6.53209L63.7781 1.06115L61.7781 1.06116L61.7781 6.53209L63.7781 6.53209ZM62.7781 2.06116H148.656V0.0611572H62.7781V2.06116Z" fill="white" style="fill:white;fill-opacity:1;" mask="url(#path-1-outside-1_50_765)"/>
<mask id="path-3-outside-2_50_765" maskUnits="userSpaceOnUse" x="61.7781" y="66.9388" width="88" height="21" fill="black">
<rect fill="white" x="61.7781" y="66.9388" width="88" height="21"/>
<path fill-rule="evenodd" clip-rule="evenodd" d="M62.7781 86.9388H68.9575V86.9388L142.476 86.9388H148.656L148.656 81.7922L148.656 68.0246H142.476V81.7922L68.9575 81.7922V68.0247H62.7781V86.9388Z"/>
</mask>
<path fill-rule="evenodd" clip-rule="evenodd" d="M62.7781 86.9388H68.9575V86.9388L142.476 86.9388H148.656L148.656 81.7922L148.656 68.0246H142.476V81.7922L68.9575 81.7922V68.0247H62.7781V86.9388Z" fill="white" style="fill:white;fill-opacity:1;"/>
<path d="M68.9575 86.9388H69.9575V87.9388H68.9575V86.9388ZM62.7781 86.9388V87.9388H61.7781V86.9388H62.7781ZM68.9575 86.9388H67.9575V85.9388H68.9575V86.9388ZM142.476 86.9388V85.9388V86.9388ZM148.656 86.9388L149.656 86.9388V87.9388H148.656V86.9388ZM148.656 81.7922L149.656 81.7922V81.7922L148.656 81.7922ZM148.656 68.0246V67.0246H149.656V68.0246H148.656ZM142.476 68.0246H141.476V67.0246H142.476V68.0246ZM142.476 81.7922H143.476V82.7922H142.476V81.7922ZM68.9575 81.7922V82.7922H67.9575V81.7922H68.9575ZM68.9575 68.0247V67.0247H69.9575V68.0247H68.9575ZM62.7781 68.0247H61.7781V67.0247H62.7781V68.0247ZM68.9575 87.9388H62.7781V85.9388H68.9575V87.9388ZM69.9575 86.9388V86.9388H67.9575V86.9388H69.9575ZM68.9575 85.9388L142.476 85.9388V87.9388L68.9575 87.9388V85.9388ZM142.476 85.9388H148.656V87.9388H142.476V85.9388ZM147.656 86.9388L147.656 81.7922L149.656 81.7922L149.656 86.9388L147.656 86.9388ZM149.656 68.0246L149.656 81.7922L147.656 81.7922L147.656 68.0246H149.656ZM142.476 67.0246H148.656V69.0246H142.476V67.0246ZM141.476 81.7922V68.0246H143.476V81.7922H141.476ZM142.476 82.7922L68.9575 82.7922V80.7922L142.476 80.7922V82.7922ZM69.9575 68.0247V81.7922H67.9575V68.0247H69.9575ZM62.7781 67.0247H68.9575V69.0247H62.7781V67.0247ZM61.7781 86.9388V68.0247H63.7781V86.9388H61.7781Z" fill="white" style="fill:white;fill-opacity:1;" mask="url(#path-3-outside-2_50_765)"/>
<path d="M0.136292 32.0955H13.5212C18.8588 32.0955 22.8825 35.6676 22.8825 41.0051C22.8825 46.3427 18.8588 49.7505 13.5212 49.7505H5.26855V54.8006H0.136292V32.0955ZM5.26855 36.7761V45.0699H13.3159C15.9436 45.0699 17.7502 43.6328 17.7502 41.0051C17.7502 38.3774 15.9436 36.7761 13.3159 36.7761H5.26855Z" fill="white" style="fill:white;fill-opacity:1;"/>
<path d="M39.2944 36.653L35.0655 46.8764H45.1658L41.0599 36.653H39.2944ZM36.0919 32.0955H44.4267L54.0754 54.8006H48.6557L47.1776 51.3518H33.1768L31.6987 54.8006H26.1969L36.0919 32.0955Z" fill="white" style="fill:white;fill-opacity:1;"/>
<path d="M59.8341 32.0955H73.219C78.5565 32.0955 82.5802 35.6676 82.5802 41.0051C82.5802 44.4951 80.8558 47.1228 78.187 48.5598L81.6769 54.8006H76.0931L73.4243 49.7505H64.9663V54.8006H59.8341V32.0955ZM64.9663 36.7761V45.0699H73.0137C75.6414 45.0699 77.448 43.6328 77.448 41.0051C77.448 38.3774 75.6414 36.7761 73.0137 36.7761H64.9663Z" fill="white" style="fill:white;fill-opacity:1;"/>
<path d="M86.7367 32.0955H110.345V36.694H101.107V54.8006H95.9748V36.694H86.7367V32.0955Z" fill="white" style="fill:white;fill-opacity:1;"/>
<path d="M116.084 32.0955H121.216V54.8006H116.084V32.0955Z" fill="white" style="fill:white;fill-opacity:1;"/>
<path d="M127.769 32.0955H139.471C145.711 32.0955 151.706 36.6119 151.706 43.4275C151.706 50.2432 145.711 54.8006 139.471 54.8006H127.769V32.0955ZM132.901 36.7351V50.12H139.471C143.576 50.12 146.574 47.3281 146.574 43.4275C146.574 39.527 143.576 36.7351 139.471 36.7351H132.901Z" fill="white" style="fill:white;fill-opacity:1;"/>
<path d="M162.662 43.4686C162.662 48.1492 165.988 50.9822 170.258 50.9822C174.528 50.9822 177.854 48.1492 177.854 43.4686C177.854 38.788 174.528 35.955 170.258 35.955C165.988 35.955 162.662 38.788 162.662 43.4686ZM182.986 43.4686C182.986 50.6127 177.156 55.3754 170.258 55.3754C163.36 55.3754 157.53 50.6127 157.53 43.4686C157.53 36.3245 163.36 31.5618 170.258 31.5618C177.156 31.5618 182.986 36.3245 182.986 43.4686Z" fill="white" style="fill:white;fill-opacity:1;"/>
<path d="M211.207 34.9285L208.743 38.7059C206.075 36.8583 203.365 36.1192 199.752 36.1192C195.317 36.1192 194.25 37.2688 194.25 38.5416C194.25 39.8555 195.44 40.184 197.206 40.3893L204.022 41.1694C208.866 41.7442 211.864 43.7971 211.864 47.985C211.864 53.0762 206.896 55.3754 200.08 55.3754C195.44 55.3754 191.951 54.3901 188.337 51.7213L190.76 47.7386C193.88 49.9147 196.919 50.9001 200.655 50.9001C204.268 50.9001 206.896 49.9968 206.896 48.0671C206.896 46.8354 206.239 46.2195 204.309 46.0142L196.672 45.152C192.033 44.6182 189.2 42.8117 189.2 38.5827C189.2 33.7789 193.962 31.5618 199.752 31.5618C203.981 31.5618 207.676 32.3008 211.207 34.9285Z" fill="white" style="fill:white;fill-opacity:1;"/>
</svg>
